<svg version="1" xmlns="http://www.w3.org/2000/svg" width="1333.333" height="1333.333" viewBox="0 0 1000.000000 1000.000000"><path d="M661 71.1c-2.5.4-6.3 1-8.5 1.4-57.2 9.5-147.2 59.4-225 124.9-25.3 21.3-36.5 31.7-64.1 59.1-42.5 42.4-73.1 79.4-102.2 123.5-5.7 8.5-10.6 15.9-11 16.5-2.8 3.9-18.9 31.5-25.9 44.5-7.1 13.2-19.3 38.2-19.3 39.6 0 .2-.9 2.3-2 4.7-6.2 13.6-18.9 50.8-21.4 63.3-.3 1-1.4 5.7-2.5 10.4-2.2 9.4-5.7 29.4-6.7 38-.3 3-.7 6.6-1 8-2.2 14.1-2.2 67.8.1 81 .2 1.4.7 5 1 8 .4 3 .8 6.6 1 8 .7 5.2 1.8 11.6 2.2 13.5.2 1.1.8 4.2 1.3 7 1.4 8.4 6.7 28.6 10.5 40.5l3.7 11.2-4.4 4.6c-2.3 2.5-5.4 5.8-6.8 7.2-3.6 3.9-32.5 34.3-39 41-3 3.1-12 12.6-20 21s-16 16.9-17.9 18.9c-8 8.4-18.9 21.9-20.5 25.5-3.9 8.3-.8 18.1 8.6 27.6 5.7 5.8 10.9 8.7 16.9 9.5 3.7.5 5 .1 9.1-2.7 6.9-4.7 21.5-19.8 40.3-41.8 7.7-9 10.5-12.2 17-19.4.6-.6 2.5-2.9 4.4-5.1 4.5-5.3 18-20.2 25.9-28.7 3.5-3.7 7.2-7.6 8.2-8.8.9-1.1 2.1-2 2.6-1.9.5 0 3.4 3.5 6.4 7.6 5.9 8.3 20.7 23.9 28 29.5 30.1 23.5 63.2 34 105 33.3 17.6-.3 22.6-.7 36-3.1 63.4-11 138.8-48.5 199-98.8 16.3-13.7 37.5-34.2 51.5-50.1 4.4-5 8.2-9.2 8.5-9.5 1.9-1.8 17.9-22.2 23.8-30.3 8.8-11.8 25.1-35.6 31.1-45.2 8.7-13.9 17.1-27.7 17.1-28 0-.2 1.7-3.2 3.8-6.6 7-11.6 32.2-60.4 32.2-62.3 0-.2 1.5-3.7 3.4-7.8 1.9-4 4.6-10.2 6.1-13.8 2.8-6.9 3.1-7.7 6.3-15.5 8.5-20.6 24.7-69.7 27.7-84.1.2-1 1.2-5.7 2.3-10.4 2.1-8.6 4.9-23 5.7-28.5.3-1.7.6-3.9.9-5 .4-1.9 1.4-9.1 2.1-15 1.6-12.8 2-22.1 2-42.9v-23.8l39-39.2c21.5-21.5 40.4-40.7 42-42.6 9.6-11.1 17.6-21.9 20.3-27.4 5.4-10.8 4.7-18.7-2.7-33.6-3.9-7.7-13.2-22.3-14.9-23.4-.5-.3-6 5-12.3 11.6-6.3 6.7-13.5 14.3-16.1 17-2.6 2.7-8.5 9-13.2 14.1-4.6 5.1-10.8 11.7-13.8 14.8-2.9 3.1-10.7 11.4-17.3 18.5-6.6 7.1-15.2 16.3-19.2 20.4-3.9 4.1-9 9.5-11.2 12l-4 4.5-7.7-8.3c-20.6-22.2-46.4-32.6-80.9-32.5-9.4 0-21.4.8-26 1.7-1.1.2-4.2.7-7 1-2.7.4-6.6 1.1-8.5 1.6-1.9.5-4.8 1.2-6.5 1.4-7.9 1.4-20.7 4.5-36.9 8.8-8.1 2.1-15 3.7-15.2 3.5-.4-.4 26.4-13.9 34.1-17.2 2.2-.9 5.8-2.5 8-3.5 13.3-6 33.7-12.8 52.4-17.5 14.3-3.6 22.2-5.1 36.1-7 2.5-.3 5.6-.8 7-1 7.9-1.2 17.2-2 35.5-3.1 6.6-.3 12.1-.8 12.3-.9.5-.5-8.5-24.6-13.8-37.1-13.1-30.5-28.5-52.6-43.8-62.7-9.7-6.5-22.1-11.3-34.6-13.4-5.1-.8-29.8-1-34.6-.2zm32.4 203c8.9 1.6 16.3 5.5 22.7 11.8 6.3 6.3 9.6 12.2 12.8 22.5 1.1 3.7 2.1 6.9 2.1 7.1 0 .2-3 3.2-6.7 6.6-8.8 8.5-8.7 8.3-17.8 16.4-4.4 3.8-8.4 7.5-9 8.1-.8 1-6.6 6.1-25 22.3-3.9 3.4-31.2 27-39.4 34.1-6.6 5.6-69.7 58-76.7 63.7-2.1 1.7-19.2 15.7-37.9 31-18.8 15.3-35.8 29.1-37.9 30.8-2.1 1.6-4.6 3.7-5.6 4.5-2.5 2-5.2 4.3-37.5 30.4-15.4 12.5-28.9 23.5-30 24.4-1.1.9-5.4 4.4-9.5 7.7s-8.4 6.7-9.5 7.7c-1.1.9-11.8 9.6-23.9 19.3-12 9.7-22.4 18.1-23 18.6-.6.5-6.7 5.5-13.6 11-6.9 5.6-14.3 11.6-16.5 13.4-2.2 1.8-15.7 12.8-29.9 24.4-14.2 11.6-26.1 21-26.3 20.7-.2-.2.3-3.5 1.2-7.2 2-8.3 1.9-8.1 2.9-12.4 2.8-12.2 14.9-49 19.6-59.5.5-1.1 2.1-4.9 3.5-8.5 2.7-6.7 3.5-8.5 7.9-18.3 1.4-3.2 2.6-6 2.6-6.2 0-.6 9-19.5 17.6-37C349 483.8 390.2 420.3 433.7 372c1.7-1.9 4-4.6 5.2-6 1.1-1.4 2-2.2 2.1-1.9 0 .3-3.5 7-7.8 15-25.7 47.4-43 88.8-50.7 121.2-2.7 11.5-2.7 11.5 7.7-3.8 8-11.8 14.7-21.5 18.9-27.4 1.4-2 4.2-6.1 6.4-9.1 2.1-3 7.7-10.8 12.4-17.4 4.7-6.5 9.9-13.7 11.5-16 11.8-16.9 38-45.3 59.1-64.1 35.1-31.3 71.2-54.8 111.4-72.4 10.2-4.6 33.7-12.7 38.8-13.4 1.7-.3 3.5-.7 4-1 2.1-1.3 23.7-3.4 30.3-2.9 2.5.1 7.2.7 10.4 1.3zm35.7 115.2c-.5 1.2-1.1 4.1-1.5 6.5-.3 2.4-1 6-1.5 8-.6 2-1.2 4.8-1.5 6.2-.9 5.1-6.6 24.9-10.4 36-21.2 62.5-66.8 138.7-123.6 206.5-5.6 6.6-11.2 13.2-12.6 14.7-1.4 1.4-4.4 4.8-6.7 7.5-7.8 9.1-33.2 35.2-47 48.3-59.1 56.2-118.6 94.5-161.3 103.6-8.7 1.8-31.2 2.5-39.5 1.2-30-4.9-49.8-19.4-61-44.7l-2.8-6.5 2.5-2c6.3-5.2 40.1-33.6 46.8-39.4 11-9.5 11-9.4 30.5-25.7 9.9-8.2 18.2-15.2 18.5-15.5.6-.6 20.9-17.7 34.5-28.9 5.5-4.6 12.3-10.2 15-12.6 5.1-4.3 39.3-32.7 47.4-39.4 2.5-2 5.8-4.8 7.5-6.2 1.7-1.4 4.2-3.5 5.6-4.7 2.3-1.9 87.4-71.4 97-79.2 2.4-1.9 12.5-10.2 22.4-18.4 10-8.2 19.9-16.3 22.1-18.1 16.5-13.6 63.2-52.2 65.1-54 .6-.5 3.3-2.8 6-5 2.6-2.2 6.6-5.6 8.9-7.5 2.3-1.9 6.7-5.8 10-8.5 10.1-8.6 20.7-17.9 24.9-21.7 4.3-3.9 6-4.1 4.7-.5z"/></svg>